<?xml version="1.0" standalone="no"?>
<!DOCTYPE svg PUBLIC "-//W3C//DTD SVG 20010904//EN"
 "http://www.w3.org/TR/2001/REC-SVG-20010904/DTD/svg10.dtd">
<svg version="1.0" xmlns="http://www.w3.org/2000/svg"
 width="852.000000pt" height="852.000000pt" viewBox="0 0 852.000000 852.000000"
 preserveAspectRatio="xMidYMid meet">
<metadata>
Created by potrace 1.14, written by Peter Selinger 2001-2017
</metadata>
<g transform="translate(0.000000,852.000000) scale(0.100000,-0.100000)"
fill="#000000" stroke="none">
<path d="M4185 8446 c-23 -22 -59 -50 -80 -62 -33 -18 -191 -109 -460 -266
-27 -16 -58 -32 -67 -35 -10 -3 -18 -9 -18 -14 0 -5 -4 -9 -9 -9 -5 0 -55 -27
-110 -60 -56 -33 -106 -60 -111 -60 -6 0 -10 -4 -10 -10 0 -5 -4 -10 -10 -10
-7 0 -241 -132 -320 -180 -8 -5 -55 -33 -105 -62 -49 -29 -99 -58 -110 -65
-11 -7 -27 -16 -35 -20 -8 -4 -46 -26 -85 -48 -38 -23 -90 -53 -115 -67 -25
-14 -128 -74 -230 -133 -102 -60 -205 -119 -230 -133 -25 -14 -57 -33 -72 -43
-14 -11 -29 -19 -32 -19 -4 0 -25 -12 -49 -27 -23 -14 -67 -40 -97 -56 -30
-16 -71 -40 -90 -52 -19 -13 -78 -47 -130 -77 -135 -78 -140 -81 -164 -104
-40 -39 -84 -100 -110 -152 -27 -53 -60 -176 -53 -196 2 -6 1 -20 -3 -31 -4
-11 -4 -32 1 -47 4 -16 4 -28 -1 -28 -5 0 -5 -13 0 -30 5 -17 5 -30 0 -30 -5
0 -5 -13 0 -30 5 -17 5 -30 0 -30 -5 0 -5 -13 0 -30 5 -17 5 -30 0 -30 -5 0
-5 -13 0 -30 5 -17 5 -30 0 -30 -5 0 -5 -13 0 -30 5 -17 5 -30 0 -30 -5 0 -5
-13 0 -30 5 -17 5 -30 0 -30 -5 0 -5 -13 0 -30 5 -17 5 -30 0 -30 -5 0 -5 -13
0 -30 5 -17 5 -30 0 -30 -5 0 -5 -13 0 -30 5 -17 5 -30 0 -30 -5 0 -5 -13 0
-30 5 -17 5 -30 0 -30 -5 0 -5 -13 0 -30 5 -17 5 -30 0 -30 -5 0 -5 -13 0 -30
5 -17 5 -30 0 -30 -5 0 -5 -13 0 -30 5 -17 5 -30 0 -30 -5 0 -5 -13 0 -30 5
-17 5 -30 0 -30 -5 0 -5 -13 0 -30 5 -17 5 -30 0 -30 -5 0 -5 -13 0 -30 5 -17
5 -30 0 -30 -5 0 -5 -13 0 -30 5 -17 5 -30 0 -30 -5 0 -5 -13 0 -30 5 -17 5
-30 0 -30 -5 0 -5 -13 0 -30 5 -17 5 -30 0 -30 -5 0 -5 -13 0 -30 5 -17 5 -30
0 -30 -5 0 -5 -13 0 -30 5 -17 5 -30 0 -30 -5 0 -5 -13 0 -30 5 -17 5 -30 0
-30 -5 0 -5 -13 0 -30 5 -17 5 -30 0 -30 -5 0 -5 -13 0 -30 5 -17 5 -30 0 -30
-5 0 -5 -13 0 -30 5 -17 5 -30 0 -30 -5 0 -5 -13 0 -30 5 -17 5 -30 0 -30 -5
0 -5 -13 0 -30 5 -19 5 -30 -1 -30 -6 0 -7 -5 -4 -10 8 -14 11 -108 3 -116 -4
-3 -2 -19 2 -35 5 -16 5 -31 0 -34 -4 -3 -4 -20 0 -39 4 -19 4 -40 0 -46 -4
-7 -4 -26 0 -41 5 -16 5 -31 0 -34 -4 -3 -4 -20 0 -39 4 -19 4 -40 0 -46 -4
-7 -4 -26 0 -41 5 -16 5 -31 0 -34 -4 -3 -4 -20 0 -39 4 -19 4 -40 0 -46 -4
-7 -4 -26 0 -41 5 -16 5 -31 0 -34 -4 -3 -4 -20 0 -39 4 -19 4 -40 0 -46 -4
-7 -4 -26 0 -41 5 -16 5 -31 0 -34 -4 -3 -4 -20 0 -39 4 -19 4 -40 0 -46 -4
-7 -4 -26 0 -41 5 -16 5 -31 0 -34 -4 -3 -4 -20 0 -39 4 -19 4 -40 0 -46 -4
-7 -4 -26 0 -41 5 -16 5 -31 1 -34 -4 -2 -5 -25 -1 -50 4 -25 4 -45 0 -45 -12
0 7 -95 27 -132 10 -20 27 -53 38 -74 24 -47 98 -124 145 -151 81 -47 317
-186 340 -201 14 -9 27 -17 30 -17 6 -1 71 -41 85 -52 6 -4 24 -15 40 -23 17
-8 32 -17 35 -20 3 -3 19 -12 35 -21 17 -9 127 -74 245 -144 118 -71 225 -133
237 -139 13 -6 23 -14 23 -18 0 -5 5 -8 11 -8 6 0 63 -31 126 -70 63 -38 116
-70 118 -70 1 0 63 -36 136 -80 73 -45 135 -76 138 -71 3 5 6 340 6 745 -1
405 2 740 5 744 3 5 32 23 65 42 98 55 107 59 460 262 187 107 367 210 400
228 33 18 72 41 87 51 14 11 28 19 31 19 2 0 71 39 153 86 82 47 167 96 189
109 72 40 109 62 163 94 29 17 55 31 57 31 2 0 36 19 77 43 40 24 93 55 118
69 25 14 63 35 85 48 22 13 65 36 95 53 30 16 62 36 71 43 8 8 18 14 21 14 4
0 39 19 80 43 40 24 98 57 128 74 49 27 98 55 225 129 22 13 47 27 55 31 37
19 155 87 160 92 3 3 27 17 54 31 85 43 275 32 384 -22 53 -27 111 -110 140
-200 20 -62 24 -79 39 -168 14 -85 8 -485 -7 -485 -1 0 -3 -8 -5 -18 -8 -45
-49 -110 -103 -166 -33 -33 -62 -61 -66 -61 -4 0 -17 -10 -30 -22 -12 -13 -39
-32 -59 -43 -20 -11 -37 -23 -37 -27 0 -5 -6 -8 -14 -8 -8 0 -44 -18 -81 -40
-36 -23 -76 -45 -88 -51 -12 -5 -31 -15 -42 -22 -11 -7 -67 -39 -125 -71 -58
-33 -117 -68 -131 -78 -14 -9 -29 -15 -33 -11 -3 3 -6 1 -6 -5 0 -7 -4 -12 -9
-12 -5 0 -42 -19 -83 -43 -40 -24 -98 -57 -128 -74 -30 -16 -91 -51 -136 -76
-45 -26 -86 -47 -92 -47 -6 0 -12 -4 -14 -8 -1 -4 -34 -25 -73 -47 -38 -21
-86 -47 -105 -58 -19 -11 -51 -30 -71 -41 -20 -12 -79 -45 -130 -73 -52 -29
-105 -59 -119 -67 -44 -26 -223 -128 -280 -159 -30 -16 -61 -34 -67 -40 -10
-7 -13 -169 -13 -749 0 -407 3 -738 8 -736 4 2 69 39 145 83 76 44 157 91 180
104 23 13 54 31 69 40 14 9 57 34 95 56 37 22 77 45 88 52 11 7 27 15 35 19 8
4 22 13 30 19 8 7 39 26 68 41 29 16 69 39 90 51 20 13 48 28 62 35 14 7 27
15 30 18 9 10 65 41 83 47 9 3 17 9 17 14 0 5 5 9 10 9 6 0 59 29 118 64 59
35 110 65 114 66 4 0 31 16 60 35 29 19 56 35 61 35 4 0 13 5 20 11 12 10 797
469 803 469 2 0 23 14 47 30 25 17 47 30 50 30 3 0 83 46 178 102 96 57 187
110 202 118 37 19 114 95 160 158 35 47 84 145 93 185 2 9 6 27 9 40 13 50 23
122 18 130 -2 4 -1 7 4 7 4 0 7 24 6 52 -1 29 -2 78 -2 108 0 95 -2 133 -7
141 -2 4 0 9 5 11 5 1 6 23 2 48 -4 25 -4 59 -1 76 4 16 4 39 0 50 -4 10 -4
29 1 41 5 12 4 25 0 28 -5 3 -6 20 -1 38 4 18 4 42 0 52 -4 11 -4 28 -1 39 4
10 4 40 1 66 -3 26 -3 56 1 66 3 11 3 29 -2 42 -5 12 -5 22 0 22 4 0 5 20 1
45 -4 24 -4 49 0 54 3 6 3 37 0 71 -3 33 -3 61 0 62 3 2 3 40 0 86 -3 46 -2
91 1 100 4 9 3 27 -2 38 -4 12 -4 37 0 55 4 19 5 43 1 54 -4 11 -4 30 1 42 5
12 4 25 0 28 -5 3 -6 20 -2 38 5 18 5 41 1 52 -4 11 -4 29 0 40 4 11 6 29 4
40 -2 11 -4 45 -4 75 1 94 -1 133 -6 142 -3 4 -1 8 3 8 5 0 7 26 6 58 -2 31
-3 82 -3 112 1 95 -1 133 -6 142 -3 4 -1 8 3 8 5 0 7 26 6 58 -2 31 -3 82 -3
112 1 95 -1 133 -6 142 -3 4 -1 8 3 8 5 0 7 26 6 58 -2 31 -3 82 -3 112 1 92
-1 133 -6 141 -2 4 0 9 6 11 15 5 -14 113 -43 156 -70 106 -207 212 -490 378
-176 104 -287 169 -347 203 -30 18 -62 36 -70 41 -34 22 -272 161 -307 180
-21 11 -45 24 -53 30 -29 18 -267 158 -372 219 -97 55 -166 77 -169 54 -1 -5
-2 -326 -3 -715 0 -388 -3 -708 -6 -710 -9 -8 -358 -212 -402 -236 -24 -13
-54 -31 -68 -41 -14 -10 -35 -21 -48 -25 -12 -4 -22 -11 -22 -15 0 -4 -16 -13
-35 -21 -19 -8 -35 -17 -35 -22 0 -4 -4 -8 -9 -8 -5 0 -52 -26 -105 -57 -53
-32 -111 -66 -129 -77 -18 -10 -95 -55 -172 -101 -77 -45 -153 -90 -170 -99
-16 -9 -48 -28 -70 -41 -22 -14 -51 -31 -65 -38 -14 -6 -27 -14 -30 -18 -3 -3
-25 -16 -50 -30 -25 -13 -47 -27 -50 -30 -3 -3 -25 -17 -50 -30 -72 -41 -98
-56 -435 -254 -176 -104 -342 -202 -370 -217 -27 -16 -63 -37 -80 -47 -136
-82 -374 -219 -389 -225 -40 -14 -94 -21 -167 -20 -66 1 -83 5 -132 33 -66 37
-155 131 -184 192 -31 65 -36 120 -38 391 -2 339 19 421 128 495 23 15 44 31
47 34 3 3 12 9 20 12 8 4 29 16 46 26 43 26 352 204 394 227 19 10 37 21 40
24 10 10 153 90 161 90 5 0 9 5 9 10 0 6 5 10 11 10 10 0 124 64 179 100 8 6
22 13 30 17 8 4 86 49 173 100 88 51 160 93 162 93 1 0 44 25 94 55 51 30 96
55 101 55 6 0 10 5 10 10 0 6 4 10 10 10 5 0 47 23 94 50 47 28 89 50 95 50 6
0 11 3 11 8 0 4 10 12 23 18 12 6 78 44 147 84 69 40 135 78 147 84 l23 11 0
753 c0 413 -1 752 -2 751 -2 -1 -21 -20 -43 -43z"/>
<path d="M1423 924 c-71 -25 -95 -71 -96 -183 0 -85 24 -137 75 -164 31 -15
61 -19 170 -20 l132 -2 0 -50 c1 -65 -16 -74 -132 -69 -48 3 -121 6 -162 8
l-76 3 0 -59 c1 -55 2 -58 26 -59 14 0 34 -3 45 -5 11 -2 97 -5 190 -7 153 -2
173 0 202 18 47 28 65 74 66 165 0 155 -43 189 -235 190 -107 0 -118 2 -132
21 -16 24 -13 78 6 91 15 9 23 9 185 10 136 1 134 -1 123 83 l-5 40 -174 1
c-108 0 -186 -5 -208 -12z"/>
<path d="M1859 935 c-1 0 -2 -27 -4 -61 l-2 -61 81 -1 c45 0 86 0 93 -1 9 -1
12 -61 11 -243 l0 -242 26 -7 c14 -4 26 -4 26 -1 0 4 24 5 54 4 l53 -4 -1 237
c-1 130 2 242 6 248 4 6 41 10 92 10 l86 0 1 26 c0 14 2 36 3 48 5 47 2 48
-269 48 -140 0 -256 0 -256 0z"/>
<path d="M2551 925 c-5 -5 -11 -19 -14 -30 -7 -26 -196 -524 -206 -545 -14
-26 -2 -39 28 -30 16 4 34 4 42 0 7 -5 17 -6 23 -3 5 3 24 6 42 5 19 -1 33 2
32 6 -1 4 2 16 6 27 4 11 13 33 18 48 l11 28 110 -3 109 -3 20 -50 c23 -59 30
-65 73 -55 18 4 39 3 48 -1 9 -6 18 -5 21 0 3 5 15 7 27 4 18 -5 19 -2 13 23
-4 16 -11 32 -16 35 -6 3 -9 9 -8 13 1 4 -3 19 -8 34 -6 15 -31 83 -57 152
-59 160 -67 179 -105 276 l-32 80 -85 0 c-46 -1 -88 -5 -92 -11z m125 -270 c4
-11 8 -24 10 -30 1 -5 7 -25 13 -42 5 -18 6 -34 3 -36 -6 -4 -103 -2 -124 2
-3 0 3 25 13 54 11 28 22 59 24 67 2 8 9 29 15 45 l12 30 13 -35 c7 -19 16
-44 21 -55z"/>
<path d="M3009 926 c0 -6 -1 -145 -2 -308 l-2 -297 22 -4 c13 -2 25 -2 28 1 3
3 29 5 58 3 l52 -2 0 90 c0 50 2 91 5 92 3 1 31 2 62 3 l56 1 39 -70 c21 -38
43 -79 48 -90 9 -16 22 -20 65 -22 30 0 60 -2 65 -3 6 -1 20 -2 33 -1 23 1 23
1 5 34 -10 17 -22 35 -26 38 -5 3 -9 12 -10 20 -2 8 -13 31 -25 50 -28 47 -28
51 8 71 27 15 45 43 57 88 2 8 4 57 4 109 0 108 -18 154 -71 185 -30 18 -55
20 -252 21 -147 1 -218 -2 -219 -9z m347 -115 c36 -2 51 -77 31 -153 -8 -29
-9 -30 -127 -30 -16 0 -45 1 -63 1 l-32 1 0 88 0 87 30 5 c26 4 83 5 161 1z"/>
<path d="M3599 928 c-1 -5 -2 -32 -2 -60 l-1 -53 87 -1 c48 -1 91 -4 94 -7 3
-4 5 -115 5 -248 l-1 -241 30 4 c16 3 32 1 35 -4 3 -5 9 -6 14 -3 5 3 25 6 45
7 l36 1 -1 240 c-1 131 1 241 4 244 3 3 44 6 92 7 l88 1 0 60 1 60 -262 0
c-145 0 -263 -3 -264 -7z"/>
<path d="M4164 931 c-2 -2 -4 -31 -4 -63 l0 -59 29 4 c41 7 48 -2 48 -60 1
-28 4 -56 7 -62 4 -6 2 -11 -5 -11 -8 0 -9 -3 0 -13 6 -8 8 -17 4 -21 -4 -3
-6 -51 -6 -105 l1 -99 -31 2 c-46 4 -52 -5 -49 -68 3 -50 6 -55 25 -54 12 1
32 -2 45 -6 14 -5 22 -3 22 4 0 6 4 9 8 6 9 -5 48 -7 153 -6 l66 0 -2 58 c-1
31 -3 60 -4 63 0 3 -17 5 -36 4 -26 -2 -35 2 -36 14 -5 79 -2 251 4 251 4 0 4
8 0 18 -5 9 -8 24 -7 32 1 8 2 24 3 36 1 18 6 21 39 18 l38 -3 0 62 -1 62
-153 0 c-84 0 -155 -1 -158 -4z"/>
<path d="M4559 926 c-7 -55 -2 -602 4 -607 5 -4 24 -3 43 1 19 4 34 5 34 1 0
-4 17 -5 38 -3 l37 4 -1 174 c0 96 2 174 5 174 6 0 181 -300 193 -332 4 -10
18 -18 30 -19 43 -1 143 3 146 6 3 3 5 563 3 601 -1 8 -27 11 -78 10 l-78 -2
-1 -172 c0 -94 -3 -174 -6 -177 -3 -3 -13 9 -22 27 -9 18 -29 56 -45 83 -16
28 -41 72 -56 99 -15 26 -39 69 -55 94 l-28 46 -81 1 c-52 1 -81 -2 -82 -9z"/>
<path d="M5305 932 c-50 -9 -88 -37 -106 -76 -16 -36 -18 -66 -16 -248 2 -191
4 -209 23 -235 40 -54 71 -62 228 -57 175 5 219 8 231 16 8 5 11 47 6 105 -1
8 -21 10 -68 7 -159 -12 -235 -11 -249 3 -21 21 -20 335 1 353 9 8 64 12 166
13 l153 2 1 48 c0 26 -3 53 -7 60 -5 9 -54 12 -175 12 -92 0 -177 -1 -188 -3z"/>
<path d="M5745 676 c1 -234 3 -264 19 -292 37 -62 62 -69 254 -71 170 -2 175
-1 211 23 66 43 69 59 68 345 l-2 254 -77 0 -78 0 0 -236 c0 -208 -2 -238 -17
-250 -21 -18 -177 -21 -201 -3 -15 11 -17 38 -18 243 -1 127 -4 235 -8 239 -4
4 -40 7 -80 8 l-72 1 1 -261z"/>
<path d="M6409 935 c-6 -2 -3 -603 3 -611 5 -7 22 -9 46 -5 20 4 48 4 62 1 14
-4 35 -3 46 1 12 4 24 5 27 2 6 -5 197 -5 227 1 33 5 66 20 89 37 13 11 21 19
17 19 -4 0 0 10 8 23 9 14 13 45 12 87 -2 73 -21 111 -69 140 -29 18 -29 18
-8 29 42 23 65 110 47 180 -7 30 -43 70 -76 84 -18 7 -415 19 -431 12z m340
-139 c20 -18 21 -67 1 -91 -10 -13 -30 -15 -99 -13 l-86 3 -1 57 c-2 65 -3 64
104 61 42 -1 70 -7 81 -17z m19 -242 c15 -10 22 -24 22 -47 0 -57 -8 -61 -122
-62 l-103 0 -1 55 c-1 30 0 57 2 60 1 3 42 6 91 7 62 1 95 -3 111 -13z"/>
</g>
</svg>
