<svg width="30px" viewBox="0 0 150 213" fill="none" xmlns="http://www.w3.org/2000/svg">
<path d="M5.48485 42L72.7576 3L73.7542 2V38L25.4175 66C21.4741 68.1887 20.3849 69.9978 19.936 74C19.7651 77.8627 19.7874 80.5972 19.936 86C20.1278 89.2073 20.6063 90.9829 23.9225 94C26.9205 96.5444 29.163 96.7404 33.8889 95.5L103.653 54.5V19H104.65L138.037 38.5C145.113 42.8731 148.456 45.6973 149 49V122C148.217 128.026 146.722 130.493 143.02 134L76.2458 173V137L123.088 110.5C129.69 105.673 130.837 103.829 130.064 91.5C129.383 85.6945 128.363 83.6814 126.077 81C122.829 79.405 120.626 79.1101 116.111 79.5L45.3502 120V157L6.48147 134C3.9519 132.612 2.75929 131.055 1 127V51C1.46046 47.4408 2.11518 45.4589 5.48485 42Z" fill="#251056" stroke="#343f56"/>
<path d="M1.858 201.81C5.87667 202.03 8.59733 202.14 10.02 202.14C10.3573 202.14 10.6213 202.045 10.812 201.854C11.0173 201.649 11.12 201.377 11.12 201.04V199.06H6.06C4.52 199.06 3.398 198.715 2.694 198.026C2.00467 197.322 1.66 196.2 1.66 194.66V194C1.66 192.46 2.00467 191.345 2.694 190.656C3.398 189.952 4.52 189.6 6.06 189.6H13.782V192.68H6.94C6.06 192.68 5.62 193.12 5.62 194V194.44C5.62 195.32 6.06 195.76 6.94 195.76H10.9C12.3373 195.76 13.3933 196.097 14.068 196.772C14.7427 197.447 15.08 198.503 15.08 199.94V201.04C15.08 202.477 14.7427 203.533 14.068 204.208C13.3933 204.883 12.3373 205.22 10.9 205.22C10.152 205.22 9.36 205.205 8.524 205.176L6.5 205.088C5.004 205.015 3.45667 204.912 1.858 204.78V201.81ZM23.4426 205H19.4826V192.68H14.8626V189.6H28.0626V192.68H23.4426V205ZM30.8083 205H26.5183L32.3483 189.6H36.7483L42.5783 205H38.2883L37.2983 202.25H31.7983L30.8083 205ZM32.7883 199.39H36.3083L34.5483 194.22L32.7883 199.39ZM43.6774 189.6H52.9174C54.4574 189.6 55.5721 189.952 56.2614 190.656C56.9654 191.345 57.3174 192.46 57.3174 194V195.98C57.3174 197.197 57.1121 198.143 56.7014 198.818C56.3054 199.493 55.6674 199.94 54.7874 200.16L57.5374 205H53.2474L50.7174 200.38H47.6374V205H43.6774V189.6ZM53.3574 194C53.3574 193.12 52.9174 192.68 52.0374 192.68H47.6374V197.3H52.0374C52.9174 197.3 53.3574 196.86 53.3574 195.98V194ZM66.9914 205H63.0314V192.68H58.4114V189.6H71.6114V192.68H66.9914V205ZM80.414 205H72.494V201.92H74.474V192.68H72.494V189.6H80.414V192.68H78.434V201.92H80.414V205ZM95.8123 205H91.6323L86.3523 195.76V205H82.3923V189.6H86.5723L91.8523 198.84V189.6H95.8123V205ZM110.343 204.78C107.072 205.073 104.359 205.22 102.203 205.22C100.765 205.22 99.7092 204.883 99.0346 204.208C98.3599 203.533 98.0226 202.477 98.0226 201.04V194C98.0226 192.46 98.3672 191.345 99.0566 190.656C99.7606 189.952 100.883 189.6 102.423 189.6H110.343V192.68H103.303C102.423 192.68 101.983 193.12 101.983 194V201.04C101.983 201.377 102.078 201.649 102.269 201.854C102.474 202.045 102.731 202.14 103.039 202.14C103.347 202.14 103.684 202.14 104.051 202.14C104.417 202.125 104.799 202.111 105.195 202.096C105.591 202.081 105.987 202.067 106.383 202.052C106.793 202.037 107.314 202.008 107.945 201.964C108.59 201.92 109.389 201.869 110.343 201.81V204.78ZM122.005 189.6H125.965V200.82C125.965 202.36 125.613 203.482 124.909 204.186C124.22 204.875 123.105 205.22 121.565 205.22H116.505C114.965 205.22 113.843 204.875 113.139 204.186C112.45 203.482 112.105 202.36 112.105 200.82V189.6H116.065V200.82C116.065 201.7 116.505 202.14 117.385 202.14H120.685C121.565 202.14 122.005 201.7 122.005 200.82V189.6ZM128.605 189.6H137.405C138.842 189.6 139.898 189.93 140.573 190.59C141.248 191.235 141.585 192.225 141.585 193.56C141.585 194.44 141.394 195.159 141.013 195.716C140.632 196.259 140.162 196.64 139.605 196.86C140.793 197.183 141.6 197.975 142.025 199.236C142.172 199.691 142.245 200.219 142.245 200.82C142.245 202.257 141.908 203.313 141.233 203.988C140.558 204.663 139.502 205 138.065 205H128.605V189.6ZM138.285 200.16C138.285 199.28 137.845 198.84 136.965 198.84H132.565V201.92H136.965C137.845 201.92 138.285 201.48 138.285 200.6V200.16ZM137.625 194C137.625 193.12 137.185 192.68 136.305 192.68H132.565V195.76H136.305C137.185 195.76 137.625 195.32 137.625 194.44V194Z" fill="#251056"/>
</svg>
