<svg width="679" height="679" viewBox="0 0 679 679" fill="none" xmlns="http://www.w3.org/2000/svg">

<path d="M263.858 395.81C267.877 396.03 270.597 396.14 272.02 396.14C272.357 396.14 272.621 396.045 272.812 395.854C273.017 395.649 273.12 395.377 273.12 395.04V393.06H268.06C266.52 393.06 265.398 392.715 264.694 392.026C264.005 391.322 263.66 390.2 263.66 388.66V388C263.66 386.46 264.005 385.345 264.694 384.656C265.398 383.952 266.52 383.6 268.06 383.6H275.782V386.68H268.94C268.06 386.68 267.62 387.12 267.62 388V388.44C267.62 389.32 268.06 389.76 268.94 389.76H272.9C274.337 389.76 275.393 390.097 276.068 390.772C276.743 391.447 277.08 392.503 277.08 393.94V395.04C277.08 396.477 276.743 397.533 276.068 398.208C275.393 398.883 274.337 399.22 272.9 399.22C272.152 399.22 271.36 399.205 270.524 399.176L268.5 399.088C267.004 399.015 265.457 398.912 263.858 398.78V395.81ZM285.443 399H281.483V386.68H276.863V383.6H290.063V386.68H285.443V399ZM292.808 399H288.518L294.348 383.6H298.748L304.578 399H300.288L299.298 396.25H293.798L292.808 399ZM294.788 393.39H298.308L296.548 388.22L294.788 393.39ZM305.677 383.6H314.917C316.457 383.6 317.572 383.952 318.261 384.656C318.965 385.345 319.317 386.46 319.317 388V389.98C319.317 391.197 319.112 392.143 318.701 392.818C318.305 393.493 317.667 393.94 316.787 394.16L319.537 399H315.247L312.717 394.38H309.637V399H305.677V383.6ZM315.357 388C315.357 387.12 314.917 386.68 314.037 386.68H309.637V391.3H314.037C314.917 391.3 315.357 390.86 315.357 389.98V388ZM328.991 399H325.031V386.68H320.411V383.6H333.611V386.68H328.991V399ZM342.414 399H334.494V395.92H336.474V386.68H334.494V383.6H342.414V386.68H340.434V395.92H342.414V399ZM357.812 399H353.632L348.352 389.76V399H344.392V383.6H348.572L353.852 392.84V383.6H357.812V399ZM372.343 398.78C369.072 399.073 366.359 399.22 364.203 399.22C362.765 399.22 361.709 398.883 361.035 398.208C360.36 397.533 360.023 396.477 360.023 395.04V388C360.023 386.46 360.367 385.345 361.057 384.656C361.761 383.952 362.883 383.6 364.423 383.6H372.343V386.68H365.303C364.423 386.68 363.983 387.12 363.983 388V395.04C363.983 395.377 364.078 395.649 364.269 395.854C364.474 396.045 364.731 396.14 365.039 396.14C365.347 396.14 365.684 396.14 366.051 396.14C366.417 396.125 366.799 396.111 367.195 396.096C367.591 396.081 367.987 396.067 368.383 396.052C368.793 396.037 369.314 396.008 369.945 395.964C370.59 395.92 371.389 395.869 372.343 395.81V398.78ZM384.005 383.6H387.965V394.82C387.965 396.36 387.613 397.482 386.909 398.186C386.22 398.875 385.105 399.22 383.565 399.22H378.505C376.965 399.22 375.843 398.875 375.139 398.186C374.45 397.482 374.105 396.36 374.105 394.82V383.6H378.065V394.82C378.065 395.7 378.505 396.14 379.385 396.14H382.685C383.565 396.14 384.005 395.7 384.005 394.82V383.6ZM390.605 383.6H399.405C400.842 383.6 401.898 383.93 402.573 384.59C403.248 385.235 403.585 386.225 403.585 387.56C403.585 388.44 403.394 389.159 403.013 389.716C402.632 390.259 402.162 390.64 401.605 390.86C402.793 391.183 403.6 391.975 404.025 393.236C404.172 393.691 404.245 394.219 404.245 394.82C404.245 396.257 403.908 397.313 403.233 397.988C402.558 398.663 401.502 399 400.065 399H390.605V383.6ZM400.285 394.16C400.285 393.28 399.845 392.84 398.965 392.84H394.565V395.92H398.965C399.845 395.92 400.285 395.48 400.285 394.6V394.16ZM399.625 388C399.625 387.12 399.185 386.68 398.305 386.68H394.565V389.76H398.305C399.185 389.76 399.625 389.32 399.625 388.44V388Z" fill="#343F56"/>
<path d="M291.727 290.094L332.636 266.602L333.242 266V287.684L303.848 304.55C301.45 305.868 300.788 306.958 300.515 309.368C300.411 311.695 300.425 313.342 300.515 316.597C300.632 318.528 300.923 319.598 302.939 321.415C304.762 322.948 306.126 323.066 309 322.319L351.424 297.623V276.24H352.03L372.333 287.985C376.636 290.619 378.669 292.321 379 294.31V338.281C378.524 341.911 377.615 343.396 375.364 345.509L334.758 369V347.316L363.242 331.354C367.258 328.446 367.955 327.335 367.485 319.909C367.07 316.413 366.45 315.2 365.061 313.585C363.085 312.624 361.745 312.446 359 312.681L315.97 337.076V359.363L292.333 345.509C290.795 344.673 290.07 343.735 289 341.292V295.515C289.28 293.371 289.678 292.177 291.727 290.094Z" fill="#343F56"/>

</svg>
