<svg width="679" height="679" viewBox="0 0 679 679" fill="none" xmlns="http://www.w3.org/2000/svg">
<style>
g{
    transform-origin: 50% 50%;
}
  g {
    animation: ckw infinite 20s linear;
  }
@keyframes ckw {
    0% {
        transform: rotate(0deg);
    }
    100% {
        transform: rotate(360deg);
    }
}
</style>
<path d="M263.858 395.81C267.877 396.03 270.597 396.14 272.02 396.14C272.357 396.14 272.621 396.045 272.812 395.854C273.017 395.649 273.12 395.377 273.12 395.04V393.06H268.06C266.52 393.06 265.398 392.715 264.694 392.026C264.005 391.322 263.66 390.2 263.66 388.66V388C263.66 386.46 264.005 385.345 264.694 384.656C265.398 383.952 266.52 383.6 268.06 383.6H275.782V386.68H268.94C268.06 386.68 267.62 387.12 267.62 388V388.44C267.62 389.32 268.06 389.76 268.94 389.76H272.9C274.337 389.76 275.393 390.097 276.068 390.772C276.743 391.447 277.08 392.503 277.08 393.94V395.04C277.08 396.477 276.743 397.533 276.068 398.208C275.393 398.883 274.337 399.22 272.9 399.22C272.152 399.22 271.36 399.205 270.524 399.176L268.5 399.088C267.004 399.015 265.457 398.912 263.858 398.78V395.81ZM285.443 399H281.483V386.68H276.863V383.6H290.063V386.68H285.443V399ZM292.808 399H288.518L294.348 383.6H298.748L304.578 399H300.288L299.298 396.25H293.798L292.808 399ZM294.788 393.39H298.308L296.548 388.22L294.788 393.39ZM305.677 383.6H314.917C316.457 383.6 317.572 383.952 318.261 384.656C318.965 385.345 319.317 386.46 319.317 388V389.98C319.317 391.197 319.112 392.143 318.701 392.818C318.305 393.493 317.667 393.94 316.787 394.16L319.537 399H315.247L312.717 394.38H309.637V399H305.677V383.6ZM315.357 388C315.357 387.12 314.917 386.68 314.037 386.68H309.637V391.3H314.037C314.917 391.3 315.357 390.86 315.357 389.98V388ZM328.991 399H325.031V386.68H320.411V383.6H333.611V386.68H328.991V399ZM342.414 399H334.494V395.92H336.474V386.68H334.494V383.6H342.414V386.68H340.434V395.92H342.414V399ZM357.812 399H353.632L348.352 389.76V399H344.392V383.6H348.572L353.852 392.84V383.6H357.812V399ZM372.343 398.78C369.072 399.073 366.359 399.22 364.203 399.22C362.765 399.22 361.709 398.883 361.035 398.208C360.36 397.533 360.023 396.477 360.023 395.04V388C360.023 386.46 360.367 385.345 361.057 384.656C361.761 383.952 362.883 383.6 364.423 383.6H372.343V386.68H365.303C364.423 386.68 363.983 387.12 363.983 388V395.04C363.983 395.377 364.078 395.649 364.269 395.854C364.474 396.045 364.731 396.14 365.039 396.14C365.347 396.14 365.684 396.14 366.051 396.14C366.417 396.125 366.799 396.111 367.195 396.096C367.591 396.081 367.987 396.067 368.383 396.052C368.793 396.037 369.314 396.008 369.945 395.964C370.59 395.92 371.389 395.869 372.343 395.81V398.78ZM384.005 383.6H387.965V394.82C387.965 396.36 387.613 397.482 386.909 398.186C386.22 398.875 385.105 399.22 383.565 399.22H378.505C376.965 399.22 375.843 398.875 375.139 398.186C374.45 397.482 374.105 396.36 374.105 394.82V383.6H378.065V394.82C378.065 395.7 378.505 396.14 379.385 396.14H382.685C383.565 396.14 384.005 395.7 384.005 394.82V383.6ZM390.605 383.6H399.405C400.842 383.6 401.898 383.93 402.573 384.59C403.248 385.235 403.585 386.225 403.585 387.56C403.585 388.44 403.394 389.159 403.013 389.716C402.632 390.259 402.162 390.64 401.605 390.86C402.793 391.183 403.6 391.975 404.025 393.236C404.172 393.691 404.245 394.219 404.245 394.82C404.245 396.257 403.908 397.313 403.233 397.988C402.558 398.663 401.502 399 400.065 399H390.605V383.6ZM400.285 394.16C400.285 393.28 399.845 392.84 398.965 392.84H394.565V395.92H398.965C399.845 395.92 400.285 395.48 400.285 394.6V394.16ZM399.625 388C399.625 387.12 399.185 386.68 398.305 386.68H394.565V389.76H398.305C399.185 389.76 399.625 389.32 399.625 388.44V388Z" fill="#343F56"/>
<path d="M291.727 290.094L332.636 266.602L333.242 266V287.684L303.848 304.55C301.45 305.868 300.788 306.958 300.515 309.368C300.411 311.695 300.425 313.342 300.515 316.597C300.632 318.528 300.923 319.598 302.939 321.415C304.762 322.948 306.126 323.066 309 322.319L351.424 297.623V276.24H352.03L372.333 287.985C376.636 290.619 378.669 292.321 379 294.31V338.281C378.524 341.911 377.615 343.396 375.364 345.509L334.758 369V347.316L363.242 331.354C367.258 328.446 367.955 327.335 367.485 319.909C367.07 316.413 366.45 315.2 365.061 313.585C363.085 312.624 361.745 312.446 359 312.681L315.97 337.076V359.363L292.333 345.509C290.795 344.673 290.07 343.735 289 341.292V295.515C289.28 293.371 289.678 292.177 291.727 290.094Z" fill="#343F56"/>
<g>
<path d="M140.452 540.14C91.6159 540.14 56.7747 525.335 40.3753 496.93C31.974 482.378 31.5457 458.969 31.5457 458.969C35.2775 430.527 51.3016 397.934 79.0664 363.276C116.007 317.165 170.727 270.6 235.065 230.21L237.336 225.802L238.521 228.035C246.199 223.268 254.01 218.589 261.94 214.01C269.853 209.441 277.793 205.025 285.742 200.769L308.957 176.486L334.398 176.757C386.344 153.286 437.295 137.208 482.643 130.271C555.506 119.126 607.273 133.145 628.407 169.751C632.951 177.623 635.884 186.2 637.228 195.386C642.135 228.917 625.89 258.249 589.716 303.404C547.73 355.815 482.785 408.824 406.843 452.669C330.901 496.515 252.52 526.254 186.14 536.409C169.818 538.906 154.549 540.14 140.452 540.14V540.14ZM528.706 155.247C516.645 155.247 503.282 156.326 488.851 158.535C427.392 167.937 354.097 195.89 282.467 237.246C210.836 278.601 149.981 328.1 111.108 376.624C90.4887 402.362 77.5572 438.614 73.2856 457.976C70.563 470.32 71.36 480.808 75.93 488.722C87.6679 509.051 126.545 516.314 179.928 508.145C241.387 498.743 314.682 470.79 386.313 429.434C457.943 388.079 518.798 338.58 557.671 290.056C588.27 251.86 601.94 217.645 595.498 196.434C595.498 196.434 593.425 180.082 592.849 177.958C587.746 159.15 561.263 155.247 528.706 155.247V155.247Z" fill="#343F56"/>
<path d="M592.851 165.638C584.286 150.804 561.264 142.927 528.706 142.927C516.645 142.927 503.282 144.006 488.851 146.214C427.392 155.617 354.097 183.57 282.467 224.925C210.836 266.281 149.981 315.78 111.108 364.303C80.4814 402.533 66.8179 436.773 73.3002 457.98C77.5691 438.615 90.4847 414.69 111.108 388.945C149.981 340.42 210.836 290.922 282.467 249.567C299.728 239.602 317.085 230.414 334.351 222.077L359.878 222.659L382.991 200.74C420.265 186.065 456.226 175.846 488.85 170.855C503.281 168.647 516.643 167.567 528.705 167.567C561.261 167.567 584.285 175.445 592.849 190.278C593.941 192.168 594.815 194.206 595.479 196.378C598.2 184.041 597.418 173.549 592.851 165.638V165.638Z" fill="#282D38"/>
<path d="M589.715 291.083C547.73 343.493 482.785 396.503 406.843 440.347C330.901 484.193 252.52 513.933 186.14 524.087C169.819 526.584 154.551 527.819 140.453 527.819C91.6172 527.819 56.776 513.014 40.3766 484.608C35.8318 476.736 32.9102 468.157 31.5655 458.971C29.1054 477.735 31.9753 494.699 40.3766 509.249C56.776 537.655 91.6172 552.459 140.453 552.459C154.549 552.459 169.819 551.225 186.14 548.727C252.522 538.572 330.902 508.832 406.843 464.988C482.785 421.143 547.73 368.132 589.715 315.723C625.891 270.566 642.126 228.917 637.218 195.386C633.487 223.831 617.482 256.422 589.715 291.083V291.083Z" fill="#282D38"/>
<path d="M589.716 363.276C561.03 327.469 521.629 291.381 475.324 258.127L454.919 231.638L430.251 228.029C422.577 223.264 414.77 218.586 406.842 214.01C398.915 209.433 390.962 205.02 382.998 200.757C375.344 203.77 367.633 206.972 359.886 210.353C359.886 210.353 369.042 227.273 386.314 237.246C457.944 278.601 518.8 328.1 557.673 376.624C578.243 402.301 591.162 438.499 595.463 457.837C598.223 470.241 597.436 480.777 592.851 488.722C581.113 509.051 542.235 516.311 488.851 508.145C480.208 506.823 471.332 505.134 462.258 503.093L444.213 486.318L422.624 492.336C377.769 478.198 329.754 456.736 282.465 429.434C265.192 419.462 248.546 409.015 232.683 398.224L211.087 370.644L189.932 366.802C158.58 341.855 131.746 315.82 111.108 290.058C80.5649 251.932 66.8775 217.769 73.2325 196.551C73.2325 196.551 73.4606 186.192 76.0281 179.546C82.2041 163.569 107.513 155.248 140.073 155.248C152.132 155.248 165.501 156.329 179.928 158.536C212.559 163.528 285.811 188.43 285.811 188.43L312.219 187.217C319.625 183.59 327.023 180.107 334.402 176.772C308.031 164.855 281.915 154.843 256.659 146.964L237.153 128.937L217.033 136.204C206.493 133.791 196.177 131.806 186.136 130.27C113.274 119.125 61.5079 133.144 40.3753 169.75C35.8305 177.622 32.8983 186.199 31.5536 195.385C31.5536 195.385 27.8682 234.042 79.0664 303.403C118.947 357.433 185.997 408.824 261.939 452.669C337.881 496.515 416.262 526.254 482.642 536.409C498.967 538.906 514.228 540.141 528.328 540.141C577.159 540.139 613.804 526.297 628.405 496.93C638.082 477.466 637.235 458.97 637.235 458.97C633.504 430.527 617.479 397.934 589.716 363.276V363.276Z" fill="#343F56"/>
<path d="M628.407 484.608C612.008 513.012 577.159 527.818 528.33 527.819C514.23 527.819 498.97 526.584 482.643 524.087C416.262 513.931 337.881 484.192 261.94 440.347C185.997 396.504 121.052 343.493 79.0664 291.083C51.299 256.422 35.2947 223.831 31.5642 195.386C26.6561 228.917 42.8911 270.567 79.0664 315.723C107.751 351.53 147.152 387.616 193.455 420.87L217.791 449.982L238.515 450.961C246.193 455.73 254.007 460.41 261.939 464.989C312.331 494.084 363.797 516.966 412.119 532.038L432.158 550.209L451.76 542.799C462.296 545.212 472.607 547.194 482.643 548.73C498.968 551.227 514.23 552.462 528.33 552.462C577.161 552.461 612.008 537.654 628.407 509.251C636.808 494.702 639.678 477.737 637.218 458.973C635.872 468.157 632.951 476.738 628.407 484.608Z" fill="#282D38"/>
<path d="M312.214 187.2C265.53 166.565 220.133 152.453 179.83 146.314C165.401 144.116 152.032 143.044 139.973 143.052C107.413 143.073 84.4002 150.963 75.8451 165.803C71.2817 173.718 70.5073 184.211 73.2352 196.547C73.8983 194.373 74.7709 192.335 75.861 190.444C84.4161 175.604 107.429 167.712 139.989 167.692C152.048 167.684 165.417 168.755 179.846 170.954C188.509 172.274 197.407 173.962 206.504 176.003L226.065 193.175L246.138 186.737C259.109 190.818 272.344 195.51 285.749 200.778C294.565 196.053 303.394 191.527 312.214 187.2Z" fill="#282D38"/>
<path d="M557.714 364.159C518.81 315.659 457.922 266.201 386.265 224.891C377.484 219.829 368.677 214.971 359.871 210.32C351.401 214.024 342.887 217.939 334.348 222.069C351.629 230.398 369.002 239.572 386.281 249.531C403.577 259.501 420.244 269.948 436.128 280.739L459.828 309.849L478.907 312.146C510.254 337.06 537.086 363.065 557.728 388.799C578.369 414.53 591.3 438.448 595.581 457.81C602.05 436.6 588.364 402.368 557.714 364.159V364.159Z" fill="#282D38"/>
<path d="M412.121 532.031C409.353 540.906 406.387 549.448 403.212 557.59C383.593 607.905 357.865 637.944 334.392 637.944C310.917 637.944 285.191 607.905 265.571 557.59C253.58 526.836 244.449 490.58 238.521 450.954C224.055 441.971 210.06 432.674 196.634 423.134C196.634 423.134 203.705 502.528 227.32 560.183C255.259 628.395 292.124 666.679 334.393 666.679C376.662 666.679 414.687 628.859 441.465 560.183C445.153 550.725 444.071 540.964 444.071 540.964C433.609 538.391 422.944 535.406 412.121 532.031V532.031Z" fill="#343F56"/>
<path d="M436.093 280.792C437.507 299.924 438.237 319.557 438.237 339.5C438.237 394.106 432.812 446.415 422.627 492.331C436.163 496.597 449.408 500.19 462.261 503.081C473.37 453.695 479.293 397.69 479.293 339.499C479.293 330.345 479.138 321.249 478.848 312.221C465.386 301.507 451.091 290.995 436.093 280.792V280.792Z" fill="#343F56"/>
<path d="M232.689 280.782C217.688 290.987 203.398 301.503 189.932 312.217C189.641 321.247 189.486 330.344 189.486 339.499C189.486 348.66 189.641 357.763 189.932 366.798C203.392 377.508 217.694 388.015 232.687 398.215C231.272 379.08 230.542 359.444 230.542 339.497C230.542 319.55 231.275 299.918 232.689 280.782V280.782Z" fill="#343F56"/>
<path d="M206.523 175.914C200.717 201.729 196.323 229.348 193.457 258.15C206.785 248.576 220.683 239.24 235.065 230.212L237.336 225.803L243.028 189.881L241.513 185.241C229.591 181.597 217.902 178.476 206.523 175.914V175.914Z" fill="#343F56"/>
<path d="M441.463 106.496C414.685 37.8211 376.659 0 334.39 0C292.121 0 254.096 37.8211 227.318 106.496C223.631 115.953 220.21 125.895 217.032 136.222C222.457 137.466 227.94 138.82 233.477 140.286C239.012 141.752 244.6 143.33 250.235 145.016C250.235 145.016 262.394 117.236 265.57 109.09C285.189 58.7746 310.917 28.7355 334.39 28.7355C357.865 28.7355 383.591 58.7746 403.211 109.09C415.201 139.841 433.725 230.2 433.725 230.2C440.912 234.713 447.981 239.302 454.918 243.96C461.855 248.617 468.66 253.344 475.323 258.129C469.676 201.406 458.13 149.239 441.463 106.496Z" fill="#343F56"/>
<path d="M462.262 503.082C473.372 453.697 479.294 397.691 479.294 339.5C479.294 335.381 479.255 331.275 479.196 327.18C478.287 390.253 470.408 450.36 456.499 501.744C458.427 502.205 460.349 502.651 462.262 503.082V503.082Z" fill="#282D38"/>
<path d="M444.067 540.972C443.212 543.293 442.347 545.596 441.463 547.864C414.685 616.54 376.659 654.36 334.39 654.36C292.121 654.36 254.096 616.54 227.318 547.864C213.323 511.973 202.945 469.432 196.634 423.131C195.573 422.378 194.512 421.625 193.458 420.867C199.105 477.592 210.652 529.761 227.318 572.504C254.096 641.18 292.121 679 334.39 679C376.659 679 414.685 641.18 441.463 572.504C445.151 563.047 448.583 553.121 451.762 542.793C449.209 542.208 446.647 541.606 444.067 540.972Z" fill="#282D38"/>
<path d="M241.513 185.241C238.913 199.745 236.756 214.772 235.065 230.21C236.216 229.487 237.372 228.766 238.528 228.047C240.66 213.787 243.215 199.971 246.16 186.683C244.607 186.193 243.058 185.714 241.513 185.241Z" fill="#282D38"/>
<path d="M403.212 96.7694C383.593 46.4545 357.865 16.4153 334.392 16.4153C310.917 16.4153 285.191 46.4545 265.571 96.7694C259.773 111.64 254.655 127.815 250.235 145.02C252.371 145.659 254.51 146.309 256.658 146.98C259.426 138.1 262.395 129.556 265.571 121.411C285.191 71.0961 310.918 41.0569 334.392 41.0569C357.866 41.0569 383.593 71.0961 403.212 121.411C415.201 152.16 424.326 188.413 430.251 228.031C431.413 228.753 432.564 229.483 433.721 230.209C428.231 180.114 417.858 134.333 403.212 96.7694Z" fill="#282D38"/>
<path d="M169.269 135.747C163.976 118.11 147.619 105.26 128.259 105.26C108.9 105.26 92.5416 118.11 87.2502 135.747C86.0792 139.65 87.1971 178.56 128.259 178.56C169.322 178.56 170.44 139.65 169.269 135.747Z" fill="#343F56"/>
<path d="M128.258 166.24C108.899 166.24 92.5482 153.386 87.2568 135.75C86.0858 139.653 85.4479 143.786 85.4479 148.07C85.4479 171.713 104.615 190.88 128.258 190.88C151.901 190.88 171.068 171.714 171.068 148.07C171.068 143.786 170.432 139.653 169.259 135.75C163.968 153.385 147.618 166.24 128.258 166.24Z" fill="#282D38"/>
<path d="M646.492 240.538C641.199 222.902 624.842 210.051 605.482 210.051C586.123 210.051 569.765 222.902 564.473 240.538C563.302 244.441 564.42 283.351 605.482 283.351C646.545 283.35 647.663 244.44 646.492 240.538Z" fill="#343F56"/>
<path d="M605.482 271.03C586.123 271.03 569.772 258.176 564.481 240.541C563.31 244.444 562.672 248.578 562.672 252.861C562.672 276.504 581.839 295.671 605.482 295.671C629.125 295.671 648.293 276.504 648.293 252.861C648.293 248.578 647.656 244.443 646.485 240.541C641.192 258.176 624.842 271.03 605.482 271.03Z" fill="#282D38"/>
<path d="M311.07 600.148C305.777 582.512 289.42 569.661 270.06 569.661C250.701 569.661 234.343 582.512 229.051 600.148C229.051 600.148 227.251 642.961 270.06 642.961C312.87 642.961 311.07 600.148 311.07 600.148Z" fill="#343F56"/>
<path d="M270.06 630.641C250.701 630.641 234.352 617.788 229.059 600.151C227.888 604.054 227.25 608.188 227.25 612.471C227.25 636.114 246.416 655.281 270.06 655.281C293.703 655.281 312.87 636.114 312.87 612.471C312.87 608.188 312.234 604.053 311.062 600.151C305.77 617.787 289.42 630.641 270.06 630.641Z" fill="#282D38"/>
</g>
</svg>
