<svg width="100%" height="100%" viewBox="0 0 400 400" fill="none" xmlns="http://www.w3.org/2000/svg">
<path opacity="0.42" d="M65.0216 364.126C65.0216 364.126 25.1505 366.914 8.76144 360.19C-7.62644 353.464 4.13408 334.151 20.1024 329.943C36.0708 325.735 45.734 348.849 52.866 327.475C59.9992 306.101 78.6336 295.452 90.5412 309.988C102.45 324.525 114.63 329.153 127.23 316.158C139.83 303.165 151.442 313.778 156.551 332.818C161.66 351.859 220.906 315.319 243.6 322.452C266.294 329.586 283.509 350.601 297.367 327.918C311.226 305.238 327.614 299.351 336.856 312.79C346.1 326.229 349.037 342.197 365.425 330.067C381.813 317.936 404.076 328.833 397.769 343.086C391.463 357.339 349.234 362.188 349.234 362.188C349.234 362.188 104.055 349.996 65.0216 364.126Z" fill="#E6E6E6"/>
<path d="M184.564 291.873C184.564 291.873 193.4 321.403 176.172 330.128C158.946 338.853 148.555 325.266 130.587 337.235C112.62 349.207 122.085 307.619 94.6768 309.507C67.2688 311.395 77.5484 333.09 77.5484 333.09C77.5484 333.09 53.928 310.062 41.6872 330.128C29.444 350.194 35.3565 369.049 90.542 363.373C145.728 357.696 186.217 365.422 234.024 364.398C281.832 363.373 369.769 372.826 374.458 346.367C379.147 319.91 354.603 308.174 329.083 323.007C303.563 337.841 307.833 303.657 278.29 319.305C248.746 334.953 213.799 352.971 204.864 283.765L184.564 291.873Z" fill="#E6E6E6"/>
<path opacity="0.3" d="M128.607 40.4352C65.35 54.3684 23.1956 115.415 34.8807 179.13C40.448 209.536 58.3288 239.708 103.26 253.801C211.091 287.613 332.632 270.744 354.055 204.192C375.478 137.64 361.619 94.7816 309.321 61.3884C275.532 39.8176 194.69 25.8736 128.607 40.4364V40.4352Z" fill="#E6E6E6"/>
<path d="M388.825 146.157C388.824 143.615 387.814 141.178 386.016 139.381C385.126 138.492 384.068 137.787 382.905 137.306C381.742 136.826 380.495 136.579 379.237 136.581C378.719 136.581 378.203 136.627 377.694 136.716C376.594 134.655 374.954 132.932 372.95 131.732C370.946 130.532 368.652 129.9 366.316 129.904H365.847C366.712 126.493 366.376 122.888 364.896 119.695C363.416 116.503 360.882 113.917 357.721 112.372C355.624 111.347 353.322 110.815 350.989 110.815C348.656 110.815 346.354 111.348 344.258 112.373C342.162 113.398 340.327 114.887 338.894 116.728C337.461 118.569 336.467 120.713 335.988 122.997C335.51 125.28 335.559 127.642 336.132 129.904H335.662C332.236 129.904 328.949 131.265 326.526 133.688C324.103 136.111 322.742 139.397 322.742 142.824C322.742 146.251 324.103 149.537 326.526 151.96C328.949 154.383 332.236 155.744 335.662 155.744H380.483V155.646C382.788 155.346 384.906 154.218 386.44 152.472C387.975 150.726 388.822 148.481 388.825 146.157ZM76.872 207.834C76.8684 205.251 75.8396 202.775 74.012 200.95C72.184 199.125 69.7068 198.099 67.1236 198.098C66.602 198.099 66.0816 198.145 65.5676 198.233C64.4444 196.141 62.7748 194.392 60.7364 193.173C58.6984 191.954 56.368 191.31 53.9932 191.31H53.5116C53.8288 190.076 53.9908 188.808 53.9932 187.534C53.9072 184.507 52.942 181.569 51.2148 179.081C49.488 176.593 47.074 174.661 44.268 173.522C41.4616 172.383 38.3843 172.085 35.4116 172.665C32.439 173.245 29.6994 174.678 27.5274 176.789C24.6158 179.62 22.923 183.475 22.8088 187.534C22.8161 188.808 22.9791 190.075 23.2903 191.31H22.8088C19.3905 191.409 16.1453 192.836 13.7624 195.289C11.3794 197.742 10.0464 201.027 10.0464 204.447C10.0464 207.866 11.3794 211.151 13.7624 213.604C16.1453 216.057 19.3905 217.484 22.8088 217.583H68.3944V217.496C70.7392 217.189 72.8924 216.039 74.452 214.261C76.012 212.484 76.872 210.199 76.872 207.834Z" fill="#E6E6E6"/>
<path d="M112.284 116.464C123.087 116.464 131.844 107.706 131.844 96.9038C131.844 86.1013 123.087 77.3438 112.284 77.3438C101.482 77.3438 92.7246 86.1013 92.7246 96.9038C92.7246 107.706 101.482 116.464 112.284 116.464Z" fill="#FFD200"/>
<path opacity="0.22" d="M112.293 128.59C129.788 128.59 143.971 114.408 143.971 96.912C143.971 79.4168 129.788 65.2344 112.293 65.2344C94.7976 65.2344 80.6152 79.418 80.6152 96.912C80.6152 114.408 94.7976 128.59 112.293 128.59Z" fill="#F46436"/>
<path d="M162.029 117.405L160.907 120.157C159.065 124.627 158.118 129.414 158.118 134.249V268.315H172.148V134.249C172.148 129.415 171.2 124.627 169.359 120.157L168.237 117.405C168.05 116.942 167.763 116.526 167.395 116.189C167.028 115.851 166.589 115.6 166.112 115.454C165.635 115.308 165.131 115.271 164.638 115.344C164.144 115.418 163.673 115.601 163.259 115.88C162.706 116.254 162.278 116.785 162.029 117.405Z" fill="#F46436"/>
<path d="M203.261 56.9224L203.125 56.7864C202.545 56.2036 201.805 55.8068 200.999 55.6464C200.193 55.4856 199.358 55.5684 198.599 55.884C198.095 56.0932 197.637 56.3996 197.252 56.7864L197.116 56.9224C185.811 68.4384 179.433 83.9028 179.333 100.04V272.606C179.379 273.604 179.817 274.542 180.552 275.218C181.288 275.893 182.26 276.25 183.258 276.21H217.119C218.117 276.25 219.089 275.893 219.825 275.218C220.56 274.542 220.999 273.604 221.044 272.606V100.04C220.944 83.9028 214.566 68.4384 203.261 56.9224Z" fill="#F44336"/>
<path opacity="0.08" d="M205.276 138.94L221.047 146.357V214.735L192.566 176.838L205.276 138.942V138.94Z" fill="black"/>
<path d="M202.249 135.138L202.162 135.041C201.914 134.763 201.61 134.54 201.27 134.387C200.93 134.234 200.561 134.155 200.188 134.155C199.815 134.155 199.446 134.234 199.106 134.387C198.766 134.54 198.461 134.763 198.213 135.041L198.127 135.138C190.438 143.828 186.194 155.029 186.194 166.632V292.676C186.19 293.198 186.342 293.709 186.631 294.144C186.919 294.579 187.331 294.918 187.813 295.117C188.133 295.249 188.476 295.317 188.821 295.317H211.541C211.888 295.318 212.232 295.25 212.552 295.117C212.872 294.984 213.164 294.79 213.409 294.544C213.654 294.299 213.849 294.008 213.981 293.688C214.114 293.367 214.182 293.023 214.182 292.676V166.632C214.182 155.029 209.938 143.828 202.249 135.138Z" fill="#68E1FD"/>
<path opacity="0.32" d="M198.502 135.47L198.502 135.47C190.894 144.068 186.694 155.151 186.694 166.632V292.676V292.68C186.691 293.103 186.814 293.516 187.047 293.867L187.047 293.868C187.281 294.219 187.614 294.494 188.004 294.655L188.004 294.655C188.264 294.762 188.541 294.817 188.821 294.817H211.541H211.542C211.823 294.818 212.101 294.762 212.36 294.655L212.361 294.655C212.62 294.548 212.856 294.39 213.056 294.191C213.254 293.992 213.412 293.756 213.519 293.497L213.519 293.496C213.627 293.236 213.682 292.958 213.682 292.677V292.676V166.632C213.682 155.152 209.482 144.068 201.875 135.47C201.875 135.47 201.874 135.47 201.874 135.47L201.789 135.374L198.502 135.47ZM198.502 135.47L198.586 135.374C198.587 135.374 198.587 135.374 198.587 135.373C198.788 135.148 199.035 134.967 199.31 134.843C199.586 134.719 199.886 134.655 200.188 134.655C200.49 134.655 200.789 134.719 201.065 134.843C201.341 134.967 201.587 135.148 201.789 135.373L198.502 135.47Z" fill="white" stroke="black"/>
<path d="M238.342 117.402L239.465 120.154C241.301 124.625 242.244 129.413 242.241 134.246V268.313H228.247V134.246C228.249 129.413 229.193 124.627 231.024 120.154L232.159 117.402C232.412 116.789 232.84 116.266 233.391 115.897C233.941 115.529 234.588 115.332 235.251 115.332C235.913 115.332 236.56 115.529 237.111 115.897C237.661 116.266 238.089 116.789 238.342 117.402Z" fill="#F46436"/>
<path d="M221.045 167.897H228.251V146.362H221.045V167.897Z" fill="#2D3748"/>
<path opacity="0.08" d="M228.259 175.271H242.253V138.94H228.259V175.271Z" fill="black"/>
<path d="M186.201 180.398L176.969 225.712C174.928 235.843 169.899 245.132 162.532 252.379L145.526 269.088C143.79 270.798 142.516 272.922 141.824 275.258L140.072 281.194C139.826 282.028 139.768 282.906 139.901 283.766C140.035 284.625 140.356 285.444 140.844 286.165C141.33 286.885 141.971 287.49 142.718 287.934C143.466 288.378 144.303 288.651 145.169 288.734L186.225 292.683L186.201 180.398ZM214.186 180.398L223.404 225.712C225.454 235.843 230.487 245.13 237.856 252.379L254.836 269.026C256.572 270.736 257.846 272.86 258.538 275.196L260.303 281.182C260.549 282.016 260.608 282.894 260.474 283.754C260.341 284.613 260.02 285.433 259.532 286.153C259.044 286.873 258.404 287.477 257.656 287.921C256.908 288.365 256.072 288.638 255.206 288.722L214.15 292.671L214.186 180.398ZM179.338 146.362H172.13V167.896H179.338V146.362Z" fill="#2D3748"/>
<path opacity="0.08" d="M172.112 138.94H158.118V175.271H172.112V138.94Z" fill="black"/>
<path d="M194.568 264.369L186.695 275.303C183.739 279.397 182.15 284.32 182.153 289.371V305.561H218.212V289.408C218.211 284.359 216.622 279.437 213.671 275.34L205.799 264.407C205.161 263.513 204.321 262.784 203.346 262.28C202.371 261.775 201.291 261.511 200.193 261.507C199.095 261.503 198.013 261.761 197.035 262.259C196.057 262.756 195.211 263.479 194.568 264.369ZM207.18 155.908H192.569V161.831H207.18V155.908Z" fill="#2D3748"/>
<path opacity="0.34" d="M200.186 81.3477H200.172C198.954 81.3477 197.747 81.5877 196.621 82.0541C195.496 82.5205 194.472 83.2041 193.611 84.0661C192.749 84.9277 192.066 85.9509 191.6 87.0765C191.133 88.2025 190.893 89.4093 190.894 90.6281V116.208C190.893 117.427 191.133 118.634 191.599 119.76C192.065 120.886 192.749 121.909 193.61 122.771C194.472 123.633 195.495 124.317 196.621 124.783C197.747 125.25 198.954 125.49 200.172 125.49H200.186C201.404 125.49 202.611 125.25 203.737 124.784C204.863 124.317 205.886 123.634 206.748 122.772C207.609 121.91 208.293 120.887 208.759 119.761C209.225 118.635 209.465 117.428 209.465 116.21V90.6281C209.465 89.4093 209.225 88.2025 208.759 87.0765C208.293 85.9509 207.609 84.9277 206.748 84.0661C205.886 83.2041 204.863 82.5205 203.737 82.0541C202.611 81.5877 201.404 81.3477 200.186 81.3477Z" fill="white"/>
</svg>
