<svg width="auto" height="auto" viewBox="0 0 329 273" fill="none" xmlns="http://www.w3.org/2000/svg">
<path opacity="0.42" d="M53.482 271.494C53.482 271.494 20.688 273.787 7.208 268.256C-6.271 262.724 3.402 246.839 16.536 243.378C29.67 239.917 37.618 258.928 43.484 241.348C49.351 223.768 64.678 215.009 74.472 226.965C84.267 238.922 94.285 242.728 104.648 232.04C115.012 221.353 124.563 230.082 128.765 245.743C132.967 261.404 181.697 231.35 200.363 237.217C219.029 243.084 233.188 260.369 244.586 241.713C255.985 223.058 269.464 218.216 277.066 229.27C284.669 240.323 287.085 253.457 300.564 243.48C314.043 233.502 332.353 242.465 327.167 254.188C321.98 265.911 287.247 269.9 287.247 269.9C287.247 269.9 85.587 259.872 53.482 271.494V271.494Z" fill="#E6E6E6"/>
<path d="M151.806 212.065C151.806 212.065 159.074 236.354 144.904 243.53C130.735 250.706 122.189 239.531 107.41 249.376C92.632 259.222 100.417 225.016 77.874 226.569C55.331 228.122 63.786 245.966 63.786 245.966C63.786 245.966 44.358 227.026 34.29 243.53C24.22 260.034 29.083 275.543 74.473 270.874C119.864 266.205 153.166 272.559 192.487 271.717C231.809 270.874 304.137 278.649 307.994 256.887C311.851 235.126 291.663 225.473 270.673 237.673C249.683 249.874 253.195 221.758 228.896 234.628C204.596 247.499 175.852 262.318 168.503 205.396L151.806 212.065V212.065Z" fill="#E6E6E6"/>
<path d="M319.808 92.213C319.807 90.1226 318.976 88.118 317.498 86.64C316.765 85.9087 315.896 85.3289 314.939 84.9338C313.982 84.5386 312.957 84.3358 311.922 84.337C311.496 84.337 311.072 84.375 310.653 84.448C309.748 82.753 308.399 81.3361 306.751 80.3491C305.102 79.3621 303.216 78.8422 301.295 78.845H300.909C301.62 76.0394 301.344 73.0746 300.126 70.4487C298.909 67.8228 296.825 65.6958 294.225 64.425C292.501 63.5825 290.607 63.1446 288.688 63.1448C286.769 63.1449 284.876 63.5831 283.152 64.426C281.428 65.2688 279.919 66.494 278.74 68.0083C277.562 69.5226 276.744 71.2859 276.35 73.164C275.957 75.042 275.997 76.9849 276.468 78.845H276.082C273.264 78.845 270.561 79.9646 268.568 81.9576C266.575 83.9505 265.455 86.6535 265.455 89.472C265.455 92.2905 266.575 94.9935 268.568 96.9864C270.561 98.9794 273.264 100.099 276.082 100.099H312.947V100.018C314.843 99.7712 316.585 98.8432 317.847 97.4072C319.109 95.9711 319.806 94.125 319.808 92.213V92.213ZM63.227 142.943C63.2238 140.818 62.3777 138.782 60.8745 137.28C59.3712 135.779 57.3336 134.936 55.209 134.935C54.78 134.936 54.3518 134.973 53.929 135.046C53.0051 133.325 51.6319 131.887 49.9556 130.884C48.2792 129.881 46.3623 129.352 44.409 129.352H44.013C44.274 128.337 44.407 127.294 44.409 126.246C44.3384 123.756 43.5444 121.34 42.124 119.294C40.7036 117.247 38.7181 115.658 36.41 114.721C34.1018 113.784 31.5708 113.539 29.1258 114.016C26.6808 114.493 24.4275 115.672 22.641 117.408C20.2462 119.736 18.8539 122.907 18.76 126.246C18.766 127.294 18.9 128.336 19.156 129.352H18.76C15.9484 129.433 13.2793 130.607 11.3193 132.624C9.35928 134.642 8.26287 137.344 8.26287 140.157C8.26287 142.969 9.35928 145.671 11.3193 147.689C13.2793 149.706 15.9484 150.88 18.76 150.961H56.254V150.89C58.1827 150.637 59.9537 149.691 61.2366 148.229C62.5196 146.767 63.227 144.888 63.227 142.943V142.943Z" fill="#E6E6E6"/>
<path d="M92.357 67.793C101.242 67.793 108.445 60.59 108.445 51.705C108.445 42.82 101.242 35.617 92.357 35.617C83.472 35.617 76.269 42.82 76.269 51.705C76.269 60.59 83.472 67.793 92.357 67.793Z" fill="#FF7A00"/>
<path opacity="0.22" d="M92.358 77.76C106.748 77.76 118.413 66.095 118.413 51.705C118.413 37.315 106.748 25.65 92.358 25.65C77.968 25.65 66.303 37.316 66.303 51.705C66.303 66.095 77.968 77.76 92.358 77.76V77.76Z" fill="#FF7A00"/>
<path d="M133.272 68.564L132.349 70.828C130.834 74.5043 130.055 78.4419 130.055 82.418V192.688H141.595V82.418C141.595 78.442 140.815 74.504 139.301 70.828L138.378 68.564C138.225 68.1832 137.988 67.8415 137.686 67.5639C137.383 67.2863 137.023 67.0798 136.63 66.9596C136.238 66.8394 135.823 66.8085 135.418 66.8691C135.012 66.9297 134.624 67.0804 134.284 67.31C133.829 67.6177 133.477 68.0544 133.272 68.564V68.564Z" fill="#FF7A00"/>
<path d="M167.183 18.82L167.071 18.708C166.594 18.2289 165.985 17.9026 165.322 17.7704C164.659 17.6383 163.972 17.7064 163.348 17.966C162.933 18.1379 162.557 18.3901 162.24 18.708L162.128 18.82C152.83 28.2918 147.584 41.0113 147.502 54.284V196.22C147.539 197.04 147.9 197.812 148.505 198.368C149.11 198.923 149.91 199.217 150.73 199.184H178.581C179.401 199.217 180.201 198.923 180.806 198.368C181.411 197.812 181.772 197.04 181.809 196.22V54.284C181.727 41.0113 176.481 28.2918 167.183 18.82V18.82Z" fill="#374FCE"/>
<path opacity="0.08" d="M168.837 86.287L181.809 92.387V148.628L158.383 117.458L168.837 86.288V86.287Z" fill="black"/>
<path d="M166.352 83.16L166.281 83.08C166.077 82.8508 165.827 82.6674 165.547 82.5418C165.267 82.4162 164.964 82.3513 164.657 82.3513C164.35 82.3513 164.047 82.4162 163.767 82.5418C163.487 82.6674 163.237 82.8508 163.033 83.08L162.962 83.16C156.638 90.3067 153.147 99.52 153.147 109.063V212.735C153.144 213.164 153.269 213.585 153.506 213.942C153.744 214.3 154.082 214.578 154.479 214.742C154.742 214.851 155.024 214.907 155.308 214.907H173.995C174.28 214.907 174.563 214.851 174.826 214.742C175.09 214.633 175.33 214.473 175.531 214.271C175.733 214.07 175.893 213.83 176.002 213.566C176.111 213.303 176.167 213.02 176.167 212.735V109.063C176.167 99.52 172.676 90.3067 166.352 83.16V83.16Z" fill="#68E1FD"/>
<path opacity="0.32" d="M166.352 83.16L166.281 83.08C166.077 82.8508 165.827 82.6674 165.547 82.5418C165.267 82.4162 164.964 82.3513 164.657 82.3513C164.35 82.3513 164.047 82.4162 163.767 82.5418C163.487 82.6674 163.237 82.8508 163.033 83.08L162.962 83.16C156.638 90.3067 153.147 99.52 153.147 109.063V212.735C153.144 213.164 153.269 213.585 153.506 213.942C153.744 214.3 154.082 214.578 154.479 214.742C154.742 214.851 155.024 214.907 155.308 214.907H173.995C174.28 214.907 174.563 214.851 174.826 214.742C175.09 214.633 175.33 214.473 175.531 214.271C175.733 214.07 175.893 213.83 176.002 213.566C176.111 213.303 176.167 213.02 176.167 212.735V109.063C176.167 99.52 172.676 90.3067 166.352 83.16V83.16Z" fill="white"/>
<path d="M196.039 68.564L196.963 70.828C198.473 74.5056 199.249 78.4434 199.246 82.419V192.689H187.736V82.419C187.738 78.4437 188.514 74.5069 190.02 70.828L190.954 68.564C191.162 68.0604 191.514 67.6298 191.967 67.3267C192.419 67.0237 192.952 66.8619 193.497 66.8619C194.041 66.8619 194.574 67.0237 195.026 67.3267C195.479 67.6298 195.831 68.0604 196.039 68.564V68.564Z" fill="#FF7A00"/>
<path d="M181.809 110.098H187.736V92.386H181.809V110.098Z" fill="#24445B"/>
<path opacity="0.08" d="M187.748 116.168H199.258V86.286H187.748V116.168Z" fill="black"/>
<path d="M153.147 120.381L145.554 157.652C143.875 165.985 139.739 173.625 133.679 179.586L119.692 193.329C118.264 194.736 117.216 196.482 116.647 198.404L115.206 203.286C115.004 203.972 114.956 204.695 115.066 205.401C115.175 206.108 115.44 206.782 115.841 207.375C116.241 207.967 116.768 208.464 117.383 208.83C117.998 209.195 118.686 209.42 119.398 209.488L153.167 212.736L153.147 120.381V120.381ZM176.165 120.381L183.747 157.652C185.433 165.985 189.572 173.624 195.633 179.586L209.599 193.278C211.027 194.685 212.075 196.431 212.644 198.353L214.096 203.276C214.299 203.962 214.347 204.685 214.237 205.392C214.128 206.098 213.863 206.772 213.462 207.365C213.061 207.957 212.534 208.454 211.919 208.819C211.304 209.184 210.616 209.409 209.904 209.478L176.135 212.726L176.165 120.381V120.381ZM147.502 92.387H141.574V110.098H147.502V92.387Z" fill="#24445B"/>
<path opacity="0.08" d="M141.565 86.287H130.055V116.169H141.565V86.287Z" fill="black"/>
<path d="M160.037 189.441L153.561 198.434C151.13 201.802 149.823 205.851 149.826 210.005V223.322H179.484V210.036C179.483 205.883 178.176 201.835 175.749 198.465L169.274 189.472C168.75 188.737 168.058 188.137 167.257 187.723C166.455 187.308 165.566 187.09 164.663 187.087C163.761 187.084 162.87 187.296 162.066 187.705C161.261 188.115 160.566 188.71 160.037 189.441V189.441ZM170.41 100.232H158.393V105.104H170.41V100.232Z" fill="#244E5B"/>
<path opacity="0.34" d="M164.657 38.916H164.646C163.644 38.916 162.651 39.1134 161.725 39.497C160.799 39.8807 159.958 40.4429 159.249 41.1517C158.54 41.8605 157.978 42.702 157.595 43.6281C157.211 44.5541 157.014 45.5467 157.014 46.549V67.589C157.014 68.5914 157.211 69.5841 157.594 70.5103C157.978 71.4364 158.54 72.278 159.249 72.9869C159.957 73.6958 160.799 74.2582 161.725 74.6419C162.651 75.0255 163.644 75.223 164.646 75.223H164.657C165.659 75.223 166.652 75.0256 167.578 74.642C168.504 74.2583 169.345 73.6961 170.054 72.9873C170.763 72.2785 171.325 71.437 171.708 70.5109C172.092 69.5849 172.289 68.5923 172.289 67.59V46.549C172.289 45.5467 172.092 44.5541 171.708 43.6281C171.325 42.702 170.763 41.8605 170.054 41.1517C169.345 40.4429 168.504 39.8807 167.578 39.497C166.652 39.1134 165.659 38.916 164.657 38.916V38.916Z" fill="white"/>
</svg>
